Coordinates
version=1
nRows=14
nColumns=36
inDegrees=yes

Units are S.I. units (second, meters, Newtons, ...)
If the header above contains a line with 'inDegrees', this indicates whether rotational values are in degrees (yes) or radians (no).

endheader
time	pelvis_tilt	pelvis_list	pelvis_rotation	pelvis_tx	pelvis_ty	pelvis_tz	hip_flexion_r	hip_adduction_r	hip_rotation_r	knee_angle_r	knee_angle_r_beta	ankle_angle_r	subtalar_angle_r	mtp_angle_r	hip_flexion_l	hip_adduction_l	hip_rotation_l	knee_angle_l	knee_angle_l_beta	ankle_angle_l	subtalar_angle_l	mtp_angle_l	lumbar_extension	lumbar_bending	lumbar_rotation	arm_flex_r	arm_add_r	arm_rot_r	elbow_flex_r	pro_sup_r	arm_flex_l	arm_add_l	arm_rot_l	elbow_flex_l	pro_sup_l
      3.50000000	     -6.34473480	     -1.69762870	      5.71920602	      0.30601442	      0.90353973	      0.03100576	     28.64593969	     -7.66166823	    -12.74894638	     48.55648577	      0.84747055	     22.35031396	     -9.39390448	     -7.49999987	     36.26616226	    -12.96927274	     -6.67596986	     50.77972415	      0.88627338	     13.35801442	     -3.73016886	     -7.49999987	    -27.51640547	     -3.85346972	      4.00529940	      3.95060531	    -25.07936864	     -1.81867323	     32.24992243	     70.02536084	      7.90583480	    -15.51817283	    391.02199754	     26.92512901	     53.52208727
      3.50416670	     -6.94442896	     -1.81928329	      5.63076352	      0.30471140	      0.89545499	      0.03260154	     29.75797890	     -7.84014955	    -12.94468263	     49.43734701	      0.86284448	     23.08382655	     -8.69180815	     -7.49999987	     37.37589460	    -13.40949717	     -7.03985202	     51.54245402	      0.89958553	     13.77817710	     -3.19379898	     -7.49999987	    -26.79953137	     -3.92157083	      4.17983792	      4.42542566	    -24.48082437	     -1.59738393	     31.70089219	     70.27116153	      8.58257777	    -15.30154446	    391.26322437	     26.32665278	     53.78361681
      3.50833330	     -7.42997778	     -1.80372225	      5.52350105	      0.30295948	      0.89425643	      0.02957692	     30.66217637	     -8.19330212	    -13.02909708	     50.10877555	      0.87456312	     23.22306773	     -8.39345597	     -7.49999987	     38.13072335	    -13.50466967	     -7.39545999	     51.99372171	      0.90746163	     14.12848576	     -2.74025565	     -7.49999987	    -26.44125195	     -3.91173242	      3.96525610	      5.28201613	    -24.01648182	     -1.34907540	     31.35475480	     70.33996835	      8.68777905	    -14.82328827	    389.14359698	     26.43623785	     54.63591916
      3.51250000	     -8.24195147	     -1.77074489	      5.42454729	      0.30106275	      0.89570021	      0.02982962	     31.83420155	     -8.51323303	    -13.06534246	     50.42961648	      0.88016285	     23.36735851	     -7.83735086	     -7.49999987	     38.98828646	    -13.41109610	     -7.68722135	     51.89850192	      0.90579974	     14.30901872	     -2.57829056	     -7.49999987	    -25.58411708	     -3.97398729	      4.15180855	      5.58868753	    -23.73164290	     -0.45470109	     31.11011683	     70.73145411	      9.45417924	    -14.59761593	    391.26711785	     26.09234495	     55.53058242
      3.51666670	     -8.79543399	     -1.78646425	      5.34297869	      0.30052812	      0.89611677	      0.03037379	     32.46771309	     -8.59939033	    -13.15951964	     50.33853676	      0.87857321	     23.26599965	     -7.87325327	     -7.49999987	     39.39201278	    -13.33861081	     -7.83738854	     51.55321932	      0.89977342	     14.33822729	     -2.55165059	     -7.49999987	    -25.33506676	     -3.91245382	      4.09726544	      5.66234631	    -23.34264335	     -0.33679688	     32.09217510	     70.48115749	      9.55656745	    -14.30763666	    389.77956649	     27.16481160	     55.70502887
      3.52083330	     -9.14225210	     -1.63602312	      5.19740996	      0.29968351	      0.89557304	      0.03374248	     32.90711420	     -8.67950925	    -13.14903075	     50.22410712	      0.87657603	     23.10569137	     -7.70484851	     -7.49999987	     39.47013673	    -13.36212620	     -8.23204700	     51.08923702	      0.89167540	     14.16986346	     -1.97872420	     -7.49999987	    -25.05411137	     -4.17444320	      4.09455963	      6.04828282	    -22.78957691	      0.73721942	     31.95059149	     71.27500752	     10.62165244	    -14.32349477	    391.67759999	     26.40012749	     57.02218446
      3.52500000	     -9.42415499	     -1.68849811	      5.18490234	      0.29729249	      0.89045450	      0.03607968	     33.46705527	     -8.64954492	    -13.32455926	     50.41527435	      0.87991253	     23.06039569	     -7.70118070	     -7.49999987	     39.83491770	    -13.57575767	     -8.35850986	     50.98491646	      0.88985466	     14.15821748	     -1.94294692	     -7.49999987	    -24.98849497	     -4.19551082	      4.10584231	      6.28338344	    -22.24778347	      0.86303917	     32.71005627	     71.13806046	     11.33876552	    -14.46821050	    391.34365859	     27.17610228	     57.08365951
      3.52916670	    -10.03944387	     -1.68400575	      5.07330190	      0.29932109	      0.89376403	      0.03805497	     34.11730125	     -8.43298407	    -13.18043703	     50.21151452	      0.87635625	     23.12409680	     -7.63273650	     -7.49999987	     40.23431525	    -13.90523092	     -8.86363022	     50.64953290	      0.88400111	     14.27496622	     -0.90941102	     -7.49999987	    -24.41799958	     -4.38068408	      4.10233154	      6.10064404	    -21.54576395	      1.25290078	     33.65330158	     71.42215429	     11.73607754	    -14.68369759	    391.21429993	     27.68537956	     57.32466024
      3.53333330	    -10.03657044	     -1.66276073	      5.03932135	      0.30176472	      0.89770257	      0.03731129	     33.65841199	     -8.25207297	    -13.32198788	     49.51417126	      0.86418531	     22.81842291	     -7.50728893	     -7.49999987	     39.62289678	    -14.05307335	     -9.24076930	     49.82916154	      0.86968293	     14.12339538	     -0.20723933	     -7.49999987	    -24.58271401	     -4.43142751	      4.00631205	      6.11918243	    -20.87130174	      1.55767968	     34.35818904	     71.26604221	     11.83117066	    -14.72848150	    389.75219085	     28.70496957	     57.75366571
      3.53750000	    -10.13188424	     -1.58897937	      4.89320951	      0.29958265	      0.89612745	      0.03632330	     33.52113124	     -8.20189525	    -13.34393957	     49.02745128	      0.85569045	     22.64349891	     -7.57664872	     -7.49999987	     39.17464390	    -14.05640022	     -9.63826861	     49.19270272	      0.85857463	     14.24843533	      0.05053845	     -7.49999987	    -24.56234894	     -4.54366905	      4.14842315	      6.19757671	    -20.50641017	      2.37921790	     35.02137126	     71.98133351	     12.08412379	    -14.86537730	    389.55747855	     29.66180167	     58.46319251
      3.54166670	    -10.25665369	     -1.58282760	      4.88957549	      0.29814037	      0.89591952	      0.03693372	     33.32655672	     -8.07195514	    -13.27359414	     48.48518710	      0.84622615	     22.75027642	     -7.36247179	     -7.49999987	     38.90367837	    -13.95151740	     -9.89068658	     48.57647127	      0.84781936	     14.33270313	      0.13501862	     -7.49999987	    -24.50842292	     -4.54574815	      4.04370291	      6.32671489	    -20.03545392	      2.72119562	     35.66472464	     71.92342559	     12.07249232	    -14.80398181	    387.83047468	     30.72860533	     59.06486681
      3.54583330	    -10.83696091	     -1.63502160	      4.77366028	      0.29550364	      0.89374660	      0.03806321	     34.09860734	     -7.95035571	    -13.15156833	     48.44762986	      0.84557066	     22.97665790	     -7.62918337	     -7.49999987	     39.44282579	    -13.92493380	     -9.89388952	     48.30208672	      0.84303045	     14.44043059	     -0.16408829	     -7.49999987	    -24.06914452	     -4.57715458	      3.99944290	      6.14847627	    -19.69747945	      2.92705836	     37.06282868	     71.36688748	     11.73190510	    -14.68364815	    385.44786809	     32.38818433	     59.29272967
      3.55000000	    -10.86166882	     -1.52054612	      4.62471345	      0.29515570	      0.89619968	      0.03568537	     34.17056225	     -7.98625086	    -12.94793225	     48.26602854	      0.84240111	     22.51730441	     -8.08126653	     -7.49999987	     39.07721226	    -13.69987160	    -10.05015741	     47.56643834	      0.83019096	     14.30593292	     -0.17788043	     -7.49999987	    -24.28417970	     -4.72632214	      3.88755304	      6.70979321	    -19.47114731	      4.05150962	     37.06072142	     72.06099155	     11.98197228	    -14.82596989	    385.27682617	     33.46494504	     60.69161591
      3.55416670	    -11.16367062	     -1.52387478	      4.65712868	      0.29321858	      0.89827324	      0.03406512	     34.40176075	     -8.02348565	    -12.82222362	     47.80662699	      0.83438305	     22.51740263	     -7.47463437	     -7.49999987	     39.18517348	    -13.37753732	     -9.93564519	     46.90530482	      0.81865201	     14.07977481	     -0.38163917	     -7.49999987	    -24.22117454	     -4.60192851	      3.60562780	      6.91489450	    -19.28685208	      4.76084463	     37.81611345	     72.26738947	     11.92208004	    -14.79623855	    384.06929116	     34.64828374	     61.83614535
